<svg width="1440" height="368" viewBox="0 0 1440 368" fill="none" xmlns="http://www.w3.org/2000/svg">
<g opacity="0.1">
<line x1="197" y1="358.5" x2="1242" y2="358.5" stroke="#2F5B90"/>
<line x1="81" y1="294.5" x2="1358" y2="294.5" stroke="#2F5B90"/>
<line x1="4.37114e-08" y1="198.5" x2="1440" y2="198.5" stroke="#2F5B90"/>
<line x1="4.37114e-08" y1="30.5001" x2="1440" y2="30.5002" stroke="#2F5B90"/>
<line x1="81.5" y1="961" x2="81.5001" y2="29.9999" stroke="#2F5B90"/>
<line x1="1357.5" y1="961" x2="1357.5" y2="30" stroke="#2F5B90"/>
<line x1="313.5" y1="871" x2="313.5" y2="360" stroke="#2F5B90"/>
<line x1="1241.5" y1="961" x2="1241.5" y2="198" stroke="#2F5B90"/>
<line x1="197.5" y1="961" x2="197.5" y2="198" stroke="#2F5B90"/>
<line x1="1125.5" y1="871" x2="1125.5" y2="360" stroke="#2F5B90"/>
<g clip-path="url(#clip0_132_1098)">
<mask id="path-11-inside-1_132_1098" fill="white">
<path d="M1357 294H1476V679H1357V294Z"/>
</mask>
<line x1="1296.65" y1="339.124" x2="1492.13" y2="247.97" stroke="#2F5B90"/>
<line x1="1296.65" y1="454.818" x2="1492.13" y2="363.665" stroke="#2F5B90"/>
<line x1="1296.65" y1="355.651" x2="1492.13" y2="264.498" stroke="#2F5B90"/>
<line x1="1296.65" y1="372.179" x2="1492.13" y2="281.026" stroke="#2F5B90"/>
<line x1="1296.65" y1="388.707" x2="1492.13" y2="297.553" stroke="#2F5B90"/>
<line x1="1296.65" y1="405.235" x2="1492.13" y2="314.081" stroke="#2F5B90"/>
<line x1="1296.65" y1="421.763" x2="1492.13" y2="330.609" stroke="#2F5B90"/>
<line x1="1296.65" y1="438.29" x2="1492.13" y2="347.137" stroke="#2F5B90"/>
</g>
<path d="M1357 294V295H1476V294V293H1357V294ZM1476 679V678H1357V679V680H1476V679Z" fill="#2F5B90" mask="url(#path-11-inside-1_132_1098)"/>
<g clip-path="url(#clip1_132_1098)">
<mask id="path-21-inside-2_132_1098" fill="white">
<path d="M-37 294H82V679H-37V294Z"/>
</mask>
<line x1="-97.35" y1="339.124" x2="98.1293" y2="247.97" stroke="#2F5B90"/>
<line x1="-97.35" y1="454.818" x2="98.1293" y2="363.665" stroke="#2F5B90"/>
<line x1="-97.35" y1="355.651" x2="98.1293" y2="264.498" stroke="#2F5B90"/>
<line x1="-97.35" y1="372.179" x2="98.1293" y2="281.026" stroke="#2F5B90"/>
<line x1="-97.35" y1="388.707" x2="98.1293" y2="297.553" stroke="#2F5B90"/>
<line x1="-97.35" y1="405.235" x2="98.1293" y2="314.081" stroke="#2F5B90"/>
<line x1="-97.35" y1="421.763" x2="98.1293" y2="330.609" stroke="#2F5B90"/>
<line x1="-97.35" y1="438.29" x2="98.1293" y2="347.137" stroke="#2F5B90"/>
</g>
<path d="M-37 294V295H82V294V293H-37V294ZM82 679V678H-37V679V680H82V679Z" fill="#2F5B90" mask="url(#path-21-inside-2_132_1098)"/>
</g>
<defs>
<clipPath id="clip0_132_1098">
<path d="M1357 294H1476V679H1357V294Z" fill="white"/>
</clipPath>
<clipPath id="clip1_132_1098">
<path d="M-37 294H82V679H-37V294Z" fill="white"/>
</clipPath>
</defs>
</svg>
