<svg width="1136" height="300" viewBox="0 0 1136 300" fill="none" xmlns="http://www.w3.org/2000/svg">
<path fill-rule="evenodd" clip-rule="evenodd" d="M-1006.54 60.3612C-1014.06 62.283 -1018.29 65.6422 -1017.55 69.1298C-1017.21 70.7065 -1015.84 72.2448 -1013.59 73.5743L-1002.95 79.8537C-1005.25 81.5081 -1006.33 83.4112 -1005.92 85.3318C-1005.53 87.0963 -1003.92 88.7883 -1001.24 90.2374L-991.068 95.7273C-993.588 97.4612 -994.759 99.4726 -994.325 101.529L-994.327 101.523C-993.908 103.482 -992.04 105.339 -988.914 106.895L-979.289 111.679C-981.971 113.489 -983.231 115.597 -982.775 117.729L-982.791 117.73C-982.324 119.883 -980.184 121.898 -976.583 123.559L-967.66 127.671C-970.454 129.536 -971.734 131.702 -971.259 133.925C-970.757 136.284 -968.329 138.457 -964.238 140.216L-956.097 143.714C-958.943 145.634 -960.255 147.858 -959.772 150.127C-959.232 152.651 -956.448 155.045 -951.908 156.874L-944.639 159.8C-947.498 161.763 -948.814 164.033 -948.318 166.326C-947.744 169.049 -944.639 171.605 -939.58 173.526L-933.248 175.924C-936.069 177.922 -937.364 180.221 -936.877 182.531C-936.25 185.466 -932.826 188.178 -927.237 190.177L-921.935 192.073C-924.718 194.095 -925.95 196.385 -925.454 198.731L-925.456 198.725C-924.791 201.873 -921.043 204.753 -914.91 206.828L-910.678 208.262C-913.37 210.301 -914.554 212.594 -914.061 214.932C-913.343 218.292 -909.261 221.327 -902.582 223.48L-899.474 224.481C-902.048 226.531 -903.172 228.818 -902.685 231.134C-901.929 234.658 -897.404 237.941 -890.254 240.132L-888.308 240.729C-890.755 242.78 -891.813 245.052 -891.324 247.338C-890.528 251.08 -885.635 254.522 -877.929 256.778L-877.162 257.002C-879.47 259.049 -880.457 261.298 -879.976 263.547L-879.961 263.547C-879.142 267.43 -874.069 270.974 -866.045 273.303C-868.195 275.332 -869.102 277.545 -868.631 279.751C-867.798 283.656 -862.844 287.202 -854.944 289.594C-856.97 291.602 -857.789 293.758 -857.316 295.956C-856.469 299.888 -851.623 303.442 -843.834 305.897C-845.718 307.886 -846.464 310.006 -846.001 312.161L-846.019 312.156C-845.17 316.12 -840.402 319.684 -832.73 322.197C-834.491 324.164 -835.172 326.252 -834.718 328.368L-834.702 328.368C-833.874 332.292 -829.09 335.927 -821.591 338.494C-823.228 340.442 -823.854 342.499 -823.419 344.574L-823.434 344.575C-822.581 348.523 -817.88 352.173 -810.469 354.797C-812.001 356.722 -812.572 358.745 -812.135 360.781C-811.292 364.76 -806.663 368.418 -799.341 371.092C-800.773 372.995 -801.296 374.989 -800.867 376.989L-800.883 376.989C-800.027 380.996 -795.455 384.674 -788.21 387.398C-789.543 389.277 -790.02 391.235 -789.599 393.196C-788.741 397.231 -784.243 400.925 -777.086 403.696C-778.328 405.552 -778.765 407.482 -778.36 409.411L-778.362 409.405C-777.094 415.319 -768.263 420.485 -754.735 423.232L442.714 666.44C453.202 668.57 465.215 668.995 476.531 667.622C487.849 666.254 497.105 663.26 502.604 659.189L1130.5 194.887C1134.41 191.991 1136.11 188.745 1135.43 185.499C1134.18 179.591 1125.35 174.419 1111.82 171.672L-85.6316 -71.5356C-91.6713 -72.7624 -98.2161 -73.4217 -104.843 -73.4992C-109.219 -74.1182 -113.785 -74.454 -118.393 -74.5014C-122.816 -75.1322 -127.393 -75.4573 -131.943 -75.4965C-136.312 -76.1339 -140.895 -76.4737 -145.527 -76.5075C-149.869 -77.1492 -154.435 -77.4893 -159.053 -77.517C-163.429 -78.1712 -167.992 -78.5 -172.529 -78.5229C-176.896 -79.1939 -181.524 -79.5416 -186.214 -79.5505C-190.486 -80.2121 -195.022 -80.5544 -199.628 -80.5618C-203.95 -81.2476 -208.562 -81.5968 -213.248 -81.5915C-217.516 -82.2768 -222.087 -82.6237 -226.742 -82.6127C-231.082 -83.3229 -235.69 -83.6614 -240.269 -83.644C-244.592 -84.3663 -249.203 -84.7081 -253.784 -84.6835C-258.025 -85.4098 -262.633 -85.7698 -267.352 -85.7322C-271.629 -86.474 -276.233 -86.8196 -280.807 -86.7786C-285.004 -87.5323 -289.622 -87.903 -294.376 -87.8473C-298.337 -88.5693 -302.7 -88.9394 -307.205 -88.918C-307.444 -88.9168 -307.682 -88.9146 -307.919 -88.9113C-312.148 -89.6949 -316.783 -90.053 -321.385 -89.9824C-325.604 -90.786 -330.262 -91.152 -334.887 -91.071C-339.084 -91.8908 -343.752 -92.2633 -348.389 -92.1715C-352.555 -93.0044 -357.222 -93.3827 -361.862 -93.2811C-365.998 -94.1293 -370.669 -94.5157 -375.315 -94.4054C-383.041 -96.0341 -392.779 -96.0056 -400.628 -94.0066L-1006.54 60.3612ZM-381.762 -93.9213C-387.341 -94.4887 -393.497 -94.1731 -398.69 -92.8519L-1004.57 61.5144C-1011.02 63.1564 -1014.63 66.0317 -1013.99 69.0156C-1013.71 70.3623 -1012.54 71.6775 -1010.61 72.8142L-1000.84 78.5783C-999.336 77.8074 -997.532 77.1181 -995.465 76.5417L-388.51 -92.5817C-386.392 -93.1718 -384.116 -93.6167 -381.762 -93.9213ZM-998.765 79.8016C-997.343 78.9855 -995.534 78.2591 -993.382 77.6587L-386.459 -91.4693C-383.311 -92.3443 -379.76 -92.8475 -376.159 -93.0008C-375.008 -92.7297 -373.916 -92.4137 -372.904 -92.0544C-374.108 -91.7977 -375.275 -91.5007 -376.393 -91.1628L-979.415 91.2199L-998.765 79.8016ZM-1000.7 81.1782C-1002.08 82.4227 -1002.68 83.8013 -1002.38 85.2184C-1002.06 86.7348 -1000.67 88.1924 -998.366 89.4396L-988.975 94.5059C-987.659 93.8478 -986.122 93.2475 -984.38 92.7215L-982.238 92.0736L-1000.7 81.1782ZM-980.286 93.2249L-982.198 93.803C-983.99 94.3445 -985.534 94.9777 -986.802 95.678L-966.436 106.664L-960.687 104.789L-980.286 93.2249ZM-958.733 105.942L-964.368 107.78L-944.07 118.73L-939.669 117.19L-958.733 105.942ZM-936.991 116.253L-955.985 105.046L-364.851 -87.7557L-360.728 -85.323L-936.991 116.253ZM-937.699 118.353L-941.988 119.853L-922.286 130.481L-919.136 129.305L-937.699 118.353ZM-916.525 128.33L-935.021 117.416L-358.753 -84.1576L-354.345 -81.5564L-916.525 128.33ZM-917.153 130.475L-920.193 131.61L-901.03 141.948L-899.044 141.16L-917.153 130.475ZM-896.496 140.149L-914.542 129.501L-352.362 -80.3863L-347.683 -77.6256L-896.496 140.149ZM-897.051 142.336L-898.929 143.081L-880.267 153.149L-879.366 152.77L-897.051 142.336ZM-876.879 151.725L-894.504 141.325L-345.691 -76.4499L-340.775 -73.549L-876.879 151.725ZM-877.359 153.954L-878.154 154.288L-862.281 162.851L-877.359 153.954ZM-857.638 163.079L-874.872 152.909L-338.763 -72.3618L-333.626 -69.3306L-857.638 163.079ZM-838.755 174.221L-855.622 164.269L-331.615 -68.1442L-326.259 -64.9837L-838.755 174.221ZM-820.209 185.165L-836.725 175.419L-324.218 -63.7795L-318.697 -60.5213L-820.209 185.165ZM-812.675 189.611L-818.153 186.379L-316.635 -59.3045L-310.932 -55.9394L-801.441 195.671L-812.675 189.611ZM-755.989 223.061L-760.331 220.499L-753.378 223.954L-749.438 226.08L-755.989 223.061ZM-758.713 223.959L-750.986 228.518L-752.234 229.244L-770.15 221.546L-767.348 219.98L-758.713 223.959ZM-784.131 208.962L-775.381 214.124L-785.264 209.57L-784.131 208.962ZM-787.262 207.114L-786.219 207.73L-787.623 208.483L-805.712 200.147L-803.532 199.028L-787.262 207.114ZM-815.736 190.314L-811.298 192.932L-821.341 187.941L-820.709 187.631L-815.736 190.314ZM-748.873 229.765L-743.118 233.16L-749.785 230.296L-748.873 229.765ZM-731.643 237.427L-739.331 232.891L-730.711 236.863L-731.643 237.427ZM-727.506 239.868L-729.509 238.686L-728.318 237.966L-722.059 240.85L-712.418 246.051L-712.702 246.229L-727.506 239.868ZM-730.265 240.744L-731.813 240.079L-735.197 242.124L-717.509 249.244L-716.709 248.742L-730.265 240.744ZM-714.558 250.011L-714.967 250.267L-712.316 251.335L-714.558 250.011ZM-698.972 256.706L-712.502 248.722L-712.175 248.516L-695.38 255.733L-697.678 257.227L-698.972 256.706ZM-701.716 257.589L-699.892 258.665L-703.495 261.006L-721.324 254.254L-716.897 251.478L-701.716 257.589ZM-697.717 259.948L-683.262 268.477L-683.444 268.6L-700.874 261.999L-697.717 259.948ZM-681.281 267.145L-688.375 262.959L-680.043 266.313L-681.281 267.145ZM-670.524 273.493L-679.096 268.434L-677.477 267.346L-660.86 274.035L-663.764 276.053L-670.524 273.493ZM-673.245 274.387L-666.822 278.177L-669.921 280.33L-687.46 274.058L-682.652 270.825L-673.245 274.387ZM-664.625 279.473L-652.791 286.456L-667.239 281.289L-664.625 279.473ZM-648.647 286.402L-661.418 278.866L-646.184 284.635L-648.647 286.402ZM-642.043 290.299L-646.437 287.707L-643.547 285.634L-628.439 291.356L-627.302 291.969L-630.585 294.397L-642.043 290.299ZM-644.755 291.197L-649.125 289.634L-654.249 293.309L-637.012 299.149L-634.467 297.267L-644.755 291.197ZM-632.589 295.878L-634.008 295.04L-632.288 295.656L-632.589 295.878ZM-632.233 298.586L-634.257 300.083L-623.544 303.712L-632.233 298.586ZM-613.607 307.079L-630.354 297.196L-629.58 296.624L-597.224 308.195L-591.657 311.198C-595.432 311.437 -599.296 311.271 -602.817 310.734L-613.607 307.079ZM-616.265 308.007L-615.631 308.381C-612.873 310.012 -609.039 311.206 -604.728 311.916L-566.016 325.031L-565.243 325.448C-562.646 326.848 -559.269 327.905 -555.507 328.592L-515.7 342.078L-514.823 342.513C-512.446 343.696 -509.52 344.617 -506.291 345.265L-465.45 359.102L-464.438 359.568C-462.316 360.547 -459.824 361.335 -457.106 361.929L-415.061 376.173L-414.005 376.627C-412.194 377.406 -410.153 378.058 -407.955 378.581L-364.998 393.134L-363.636 393.682C-362.126 394.29 -360.477 394.815 -358.727 395.259L-314.549 410.226L-313.205 410.735C-312.094 411.155 -310.918 411.534 -309.69 411.872L-269.515 425.483L-641.779 305.644L-635.953 301.337L-616.265 308.007ZM-597.18 312.644C-594.592 312.731 -591.959 312.66 -589.385 312.424L-575.128 320.115L-597.18 312.644ZM-582.93 311.439L-563.032 318.554L-579.208 310.515L-581.56 311.114C-582.01 311.229 -582.467 311.337 -582.93 311.439ZM-575.357 309.534L-562.208 314.513L-573.849 309.149L-575.357 309.534ZM-576.218 308.108L-577.955 308.55L-580.906 307.432L-593.737 301.056L-576.218 308.108ZM-569.087 307.936L-530.286 324.608L-528.096 325.489L74.9593 157.449C81.232 155.699 84.585 152.88 83.9554 149.89L83.9398 149.89C83.6183 148.374 82.2278 146.916 79.9303 145.675L-212.262 -11.9582L-221.076 -5.44089L31.4047 143.539C33.6523 144.868 35.0219 146.407 35.3612 147.977C36.1056 151.465 31.8897 154.829 24.3314 156.747L-569.087 307.936ZM-222.974 -4.03763L28.4027 144.294C30.335 145.43 31.521 146.745 31.803 148.092L31.8205 148.097C32.448 151.082 28.8295 153.957 22.3817 155.605L-571.491 306.903L-609.378 290.624L-616.825 287.192L-222.974 -4.03763ZM-223.314 -6.76141L-214.589 -13.2133L-221.578 -16.9837L-230.181 -10.8135L-223.314 -6.76141ZM-232.111 -9.4294L-225.212 -5.35815L-619.3 286.052L-634.416 279.086L-232.111 -9.4294ZM-232.392 -12.1179L-223.877 -18.2243L-230.78 -21.9483L-239.172 -16.1183L-232.392 -12.1179ZM-241.135 -14.7541L-234.322 -10.7338L-636.869 277.956L-652.243 270.87L-241.135 -14.7541ZM-241.368 -17.4144L-233.067 -23.1818L-239.874 -26.8543L-248.051 -21.3575L-241.368 -17.4144ZM-250.049 -20.0139L-243.332 -16.0502L-654.686 269.745L-670.325 262.538L-250.049 -20.0139ZM-250.242 -22.6504L-242.157 -28.0859L-248.87 -31.7074L-256.828 -26.5365L-250.242 -22.6504ZM-258.862 -25.2145L-252.24 -21.3069L-672.759 261.416L-682.915 256.736L-688.501 253.96L-258.862 -25.2145ZM-258.994 -27.8148L-251.128 -32.9257L-257.739 -36.492L-265.476 -31.6396L-258.994 -27.8148ZM-267.548 -30.3399L-261.029 -26.4928L-690.852 252.791L-706.551 244.989L-267.548 -30.3399ZM-267.628 -32.9092L-259.984 -37.7032L-266.469 -41.2015L-273.983 -36.6593L-267.628 -32.9092ZM-276.095 -35.3829L-269.7 -31.6096L-708.88 243.832L-724.873 235.884L-276.095 -35.3829ZM-276.127 -37.9242L-268.707 -42.4092L-275.079 -45.847L-282.368 -41.607L-276.127 -37.9242ZM-284.521 -40.3549L-278.238 -36.6478L-727.188 234.733L-743.488 226.632L-284.521 -40.3549ZM-284.487 -42.8572L-277.294 -47.0416L-283.545 -50.4138L-290.606 -46.4676L-284.487 -42.8572ZM-292.801 -45.2407L-286.639 -41.6051L-745.784 225.491L-750.591 223.103L-761.961 216.969L-292.801 -45.2407ZM-292.7 -47.7033L-285.735 -51.5956L-291.842 -54.8899L-298.674 -51.2283L-292.7 -47.7033ZM-300.913 -50.0278L-294.895 -46.4765L-764.157 215.784L-780.455 206.992L-300.913 -50.0278ZM-300.756 -52.4572L-294.022 -56.0663L-299.978 -59.2794L-306.579 -55.8931L-300.756 -52.4572ZM-308.866 -54.7203L-302.996 -51.2568L-782.642 205.813L-799.271 196.842L-308.866 -54.7203ZM-308.645 -57.1122L-302.143 -60.4474L-307.929 -63.5689L-314.299 -60.4484L-308.645 -57.1122ZM-316.361 -61.6652L-310.093 -64.7361L-315.694 -67.7579L-321.832 -64.8932L-316.361 -61.6652ZM-323.873 -66.0975L-317.838 -68.9143L-323.271 -71.8453L-329.175 -69.2263L-323.873 -66.0975ZM-331.186 -70.4127L-325.385 -72.9857L-330.592 -75.7951L-336.267 -73.4106L-331.186 -70.4127ZM-338.279 -74.5978L-332.71 -76.9378L-337.69 -79.6245L-343.136 -77.4638L-338.279 -74.5978ZM-345.128 -78.6395L-339.791 -80.7575L-344.525 -83.3119L-349.745 -81.3634L-345.128 -78.6395ZM-351.728 -82.5335L-346.618 -84.441L-351.073 -86.8441L-356.07 -85.096L-351.728 -82.5335ZM-358.045 -86.2614L-353.16 -87.9702L-356.073 -89.5417C-356.337 -89.6842 -356.611 -89.8226 -356.893 -89.9568C-358.684 -89.6304 -360.394 -89.2096 -361.977 -88.6928L-362.099 -88.6532L-358.045 -86.2614ZM-364.064 -89.8125C-362.619 -90.2744 -361.085 -90.6678 -359.488 -90.9936C-360.484 -91.3285 -361.548 -91.6239 -362.662 -91.8787C-364.126 -91.8215 -365.581 -91.7086 -367.006 -91.5388C-366.848 -91.4521 -366.693 -91.3641 -366.542 -91.2748L-364.064 -89.8125ZM-370.429 -91.0074C-371.742 -90.7529 -373.009 -90.4445 -374.211 -90.0814L-977.464 92.3712L-957.939 103.893L-366.816 -88.9154L-369.526 -90.5147C-369.814 -90.6845 -370.115 -90.8487 -370.429 -91.0074ZM-369.425 -92.6707C-369.109 -92.7161 -368.791 -92.759 -368.472 -92.7994C-369.011 -92.8514 -369.555 -92.8954 -370.102 -92.9314C-369.873 -92.8464 -369.647 -92.7595 -369.425 -92.6707ZM-581.397 309.427L-583.512 309.966C-584.221 310.146 -584.949 310.308 -585.69 310.451L-594.528 307.291L-613.771 296.91L-583.567 308.349L-581.397 309.427ZM-990.798 101.417C-991.13 99.8647 -990.396 98.34 -988.748 96.9789L-969.152 107.55L-973.294 108.901C-974.753 109.376 -976.062 109.905 -977.21 110.478L-986.115 106.052C-988.824 104.709 -990.434 103.109 -990.798 101.417ZM-971.013 109.947L-967.084 108.666L-946.715 119.655L-953.775 122.124L-974.951 111.6C-973.833 110.994 -972.514 110.437 -971.013 109.947ZM-951.588 123.211L-944.632 120.778L-924.863 131.443L-930.665 133.609L-951.588 123.211ZM-928.47 134.7L-922.77 132.572L-903.542 142.945L-908.178 144.785L-928.47 134.7ZM-905.978 145.878L-901.442 144.078L-882.718 154.179L-886.272 155.672L-905.978 145.878ZM-884.061 156.771L-880.606 155.319L-862.348 165.168L-864.893 166.297L-884.061 156.771ZM-862.677 167.398L-860.228 166.312L-842.407 175.926L-844.011 176.675L-862.677 167.398ZM-841.785 177.781L-840.275 177.076L-822.867 186.467L-823.592 186.822L-841.785 177.781ZM-690.719 255.401L-688.222 256.748L-682.111 259.373L-685.267 257.805L-690.621 255.337L-690.719 255.401ZM-677.735 264.761L-690.918 257.65L-692.882 256.806L-695.116 258.258L-678.194 265.07L-677.735 264.761ZM-709.684 247.526L-710.174 247.262L-710.225 247.293L-709.684 247.526ZM-674.135 266.704L-675.459 265.989L-675.628 266.103L-674.135 266.704ZM-669.454 266.872L-658.813 272.612L-657.773 271.89L-669.454 266.872ZM-661.135 277.048L-658.436 275.173L-643.913 283.007L-644.427 283.376L-661.135 277.048ZM-642.4 281.466L-642.037 281.662L-641.993 281.63L-642.4 281.466ZM-641.791 284.375L-641.614 284.248L-640.41 284.897L-641.791 284.375ZM-639.738 282.902L-625.743 290.452L-625.417 290.575L-623.427 289.104L-639.412 282.669L-639.738 282.902ZM-607.497 302.653L-624.979 293.222L-627.877 295.365L-607.497 302.653ZM-584.253 312.834L-563.372 324.098L-553.553 327.425C-550.466 327.957 -547.094 328.204 -543.727 328.149L-549.625 325.217L-584.253 312.834ZM-541.136 329.436C-543.26 329.552 -545.405 329.562 -547.519 329.469L-527.26 336.333L-541.136 329.436ZM-520.206 333.869L-534.597 328.723C-533.827 328.593 -533.068 328.447 -532.324 328.285L-520.206 333.869ZM-482.681 343.771L-525.609 326.49L77.0273 158.567C84.1951 156.565 88.2052 153.198 87.4826 149.777C87.1113 148.012 85.5023 146.32 82.8215 144.871L-210.416 -13.3232L-202.7 -19.0292L131.454 147.044C134.164 148.388 135.776 149.994 136.137 151.68L136.135 151.674C136.769 154.627 133.565 157.47 127.551 159.287L-480.436 343.171C-481.162 343.391 -481.911 343.591 -482.681 343.771ZM-205.106 -20.2252L-212.743 -14.5783L-219.699 -18.331L-212.166 -23.7336L-205.106 -20.2252ZM-214.546 -24.9165L-221.999 -19.5716L-228.868 -23.2772L-221.519 -28.3825L-214.546 -24.9165ZM-223.887 -29.5593L-231.154 -24.5107L-237.926 -28.164L-230.766 -32.9779L-223.887 -29.5593ZM-233.132 -34.1537L-240.209 -29.3956L-246.885 -32.9971L-239.916 -37.5255L-233.132 -34.1537ZM-242.258 -38.6894L-249.143 -34.2154L-255.716 -37.761L-248.94 -42.0104L-242.258 -38.6894ZM-251.27 -43.1683L-257.961 -38.9721L-264.405 -42.4487L-257.825 -46.4261L-251.27 -43.1683ZM-260.15 -47.5818L-266.644 -43.6565L-272.974 -47.0715L-266.593 -50.7837L-260.15 -47.5818ZM-268.895 -51.9277L-275.189 -48.2662L-281.396 -51.6147L-275.215 -55.0691L-268.895 -51.9277ZM-277.494 -56.2015L-283.587 -52.7965L-289.647 -56.0661L-283.669 -59.2704L-277.494 -56.2015ZM-285.939 -60.3987L-291.828 -57.2425L-297.736 -60.4296L-291.961 -63.3918L-285.939 -60.3987ZM-294.217 -64.5131L-299.901 -61.5977L-305.637 -64.692L-300.067 -67.4204L-294.217 -64.5131ZM-302.324 -68.542L-307.8 -65.8592L-313.349 -68.8525L-307.986 -71.3557L-302.324 -68.542ZM-310.224 -72.4681L-315.493 -70.0089L-320.87 -72.91L-315.714 -75.1968L-310.224 -72.4681ZM-317.923 -76.2949L-322.984 -74.0504L-328.133 -76.8283L-323.183 -78.9086L-317.923 -76.2949ZM-325.399 -80.0101L-330.251 -77.9709L-335.17 -80.6245L-330.424 -82.5078L-325.399 -80.0101ZM-332.624 -83.6012L-337.271 -81.7575L-341.941 -84.2769L-337.558 -85.9132C-337.504 -85.9332 -337.45 -85.9531 -337.396 -85.9729L-332.624 -83.6012ZM-340.012 -86.9076L-344.034 -85.406L-348.38 -87.751C-346.804 -88.2255 -345.114 -88.613 -343.353 -88.9143C-343.102 -88.8022 -342.858 -88.687 -342.62 -88.5688L-339.589 -87.0624C-339.731 -87.0115 -339.872 -86.9599 -340.012 -86.9076ZM-346.067 -89.9403C-347.592 -89.6426 -349.062 -89.2863 -350.456 -88.8709L-353.18 -90.3402C-353.256 -90.3815 -353.334 -90.4226 -353.411 -90.4633C-352.021 -90.6173 -350.604 -90.7199 -349.178 -90.7717C-348.093 -90.5313 -347.051 -90.254 -346.067 -89.9403ZM-355.207 -91.6899C-355.452 -91.6596 -355.695 -91.6278 -355.938 -91.5946C-356.111 -91.6607 -356.285 -91.7258 -356.461 -91.7897C-356.041 -91.761 -355.623 -91.7278 -355.207 -91.6899ZM-537.495 327.687C-536.53 327.556 -535.581 327.397 -534.655 327.21L-538.783 325.308L-564.639 315.517L-546.968 324.299L-537.495 327.687ZM-976.902 112.865C-978.749 114.318 -979.586 115.956 -979.235 117.61C-978.83 119.477 -976.966 121.224 -973.847 122.664L-965.577 126.475C-964.576 125.976 -963.452 125.508 -962.211 125.075L-956.414 123.047L-976.902 112.865ZM-954.227 124.134L-959.843 126.098C-961.117 126.544 -962.249 127.033 -963.232 127.556L-941.4 137.617L-933.233 134.568L-954.227 124.134ZM-931.038 135.659L-939.109 138.673L-917.671 148.552L-910.679 145.777L-931.038 135.659ZM-908.479 146.871L-915.379 149.608L-894.614 159.177L-888.709 156.696L-908.479 146.871ZM-886.499 157.795L-892.313 160.238L-872.166 169.522L-867.27 167.351L-886.499 157.795ZM-865.054 168.452L-869.861 170.584L-850.288 179.604L-846.331 177.757L-865.054 168.452ZM-844.105 178.864L-847.975 180.67L-828.94 189.442L-825.858 187.932L-844.105 178.864ZM-823.607 189.051L-826.604 190.519L-808.058 199.065L-805.794 197.904L-823.607 189.051ZM-614.796 290.59L-618.266 288.865L-612.343 291.41L-609.477 292.731L-614.796 290.59ZM-651.51 274.582L-640.083 280.261L-640.217 280.357L-656.477 273.812L-655.264 272.969L-651.51 274.582ZM-617.441 291.514L-599.834 300.264L-622.761 291.581L-620.826 290.151L-617.441 291.514ZM-513.103 341.129L-533.559 330.963L-502.098 342.214L-496.075 344.989C-498.927 344.9 -501.731 344.603 -504.321 344.104L-513.103 341.129ZM-497.828 346.304C-496.244 346.388 -494.641 346.417 -493.04 346.388L-480.436 352.196L-497.828 346.304ZM-486.459 345.937L-480.346 348.123L-485.669 345.836C-485.814 345.856 -485.959 345.875 -486.104 345.893C-486.222 345.908 -486.34 345.923 -486.459 345.937ZM-480.151 344.789L-446.549 358.315L-437.908 361.587C-434.69 361.258 -431.605 360.655 -428.891 359.77L180.144 161.13C185.916 159.246 188.987 156.385 188.366 153.468L188.368 153.474C187.979 151.605 186.115 149.858 182.978 148.413L-194.125 -25.3695L-200.893 -20.3654L134.254 146.201C137.38 147.757 139.263 149.613 139.682 151.572C140.401 154.982 136.683 158.279 129.737 160.38L-478.25 344.265C-478.869 344.452 -479.503 344.627 -480.151 344.789ZM-203.299 -21.5615L-196.605 -26.512L-203.72 -29.7908L-210.325 -25.0534L-203.299 -21.5615ZM-212.705 -26.2363L-206.173 -30.9213L-213.202 -34.1609L-219.645 -29.6851L-212.705 -26.2363ZM-222.013 -30.8619L-215.645 -35.2863L-222.579 -38.482L-228.855 -34.2626L-222.013 -30.8619ZM-231.221 -35.4385L-225.021 -39.6071L-231.861 -42.7595L-237.968 -38.7916L-231.221 -35.4385ZM-240.31 -39.9554L-234.279 -43.8738L-241.018 -46.9792L-246.953 -43.257L-240.31 -39.9554ZM-249.282 -44.4149L-243.425 -48.0885L-250.035 -51.1347L-255.796 -47.6523L-249.282 -44.4149ZM-258.122 -48.808L-252.44 -52.2428L-258.937 -55.2371L-264.521 -51.9887L-258.122 -48.808ZM-266.823 -53.1327L-261.319 -56.3347L-267.694 -59.2726L-273.099 -56.2518L-266.823 -53.1327ZM-275.378 -57.3842L-270.053 -60.3599L-276.281 -63.2299L-281.506 -60.4298L-275.378 -57.3842ZM-283.776 -61.558L-278.634 -64.314L-284.707 -67.1128L-289.749 -64.5266L-283.776 -61.558ZM-292.005 -65.6479L-287.047 -68.1911L-292.945 -70.9093L-297.803 -68.5296L-292.005 -65.6479ZM-300.06 -69.6512L-295.288 -71.9889L-300.995 -74.6186L-305.667 -72.4379L-300.06 -69.6512ZM-307.905 -73.5503L-303.32 -75.6904L-308.853 -78.24L-313.338 -76.2505L-307.905 -73.5503ZM-315.548 -77.3486L-311.15 -79.2988L-316.446 -81.7392L-320.746 -79.9323L-315.548 -77.3486ZM-322.963 -81.0337L-318.753 -82.8025L-323.752 -85.106C-324.294 -84.9237 -324.82 -84.7318 -325.327 -84.5305L-327.924 -83.4998L-322.963 -81.0337ZM-330.125 -84.5932L-327.864 -85.4903C-327.275 -85.724 -326.664 -85.9466 -326.034 -86.1578L-329.168 -87.6019C-329.375 -87.6974 -329.586 -87.7908 -329.801 -87.8821C-331.49 -87.6113 -333.12 -87.2656 -334.654 -86.8445L-330.125 -84.5932ZM-336.841 -87.9313C-335.497 -88.3051 -334.087 -88.6278 -332.631 -88.8996C-333.591 -89.1912 -334.6 -89.4499 -335.648 -89.6754C-337.042 -89.6298 -338.429 -89.5374 -339.792 -89.3978L-336.841 -87.9313ZM-342.428 -90.528C-342.252 -90.5509 -342.075 -90.573 -341.898 -90.5944C-342.2 -90.6205 -342.504 -90.6442 -342.808 -90.6656C-342.68 -90.6203 -342.554 -90.5744 -342.428 -90.528ZM-488.299 344.706C-488.719 344.751 -489.142 344.791 -489.566 344.826L-499.369 341.321L-512.592 335.227L-493.786 342.349L-488.299 344.706ZM-967.717 133.811C-968.093 132.046 -967.203 130.324 -965.204 128.802L-943.983 138.582L-951.127 141.249C-952.197 141.648 -953.175 142.075 -954.059 142.525L-961.592 139.289C-965.167 137.755 -967.284 135.861 -967.717 133.811ZM-948.674 142.243L-941.693 139.637L-920.184 149.549L-929.297 153.165L-951.635 143.567C-950.761 143.097 -949.772 142.654 -948.674 142.243ZM-926.918 154.187L-917.891 150.605L-897.06 160.205L-905.074 163.573L-926.918 154.187ZM-902.689 164.598L-894.759 161.266L-874.548 170.579L-881.545 173.682L-902.689 164.598ZM-879.158 174.708L-872.244 171.641L-852.611 180.688L-858.664 183.514L-879.158 174.708ZM-856.271 184.542L-850.298 181.754L-831.206 190.552L-836.382 193.088L-856.271 184.542ZM-833.966 194.126L-828.87 191.629L-810.27 200.2L-814.627 202.435L-833.966 194.126ZM-812.204 203.476L-807.924 201.281L-789.784 209.641L-793.376 211.566L-812.204 203.476ZM-790.941 212.612L-787.425 210.728L-769.713 218.89L-772.59 220.497L-790.941 212.612ZM-538.437 323.317L-536.011 324.435L-531.534 326.13L-532.814 325.58L-538.437 323.317ZM-481.26 349.666L-462.814 358.166L-455.123 360.772C-453.12 361.198 -450.98 361.504 -448.779 361.686L-454.398 359.272L-481.26 349.666ZM-445.124 363.257C-446.134 363.239 -447.141 363.199 -448.14 363.138L-435.187 367.526L-445.124 363.257ZM-392.529 378.773L-435.012 362.684C-432.028 362.279 -429.182 361.663 -426.622 360.829L182.412 162.183C189.069 160.016 192.612 156.715 191.893 153.355C191.442 151.201 189.286 149.187 185.685 147.526L-192.35 -26.6822L-186.412 -31.0731L234.518 149.782C238.076 151.31 240.194 153.21 240.627 155.26L240.625 155.254C241.252 158.19 238.386 161.004 232.753 162.973L-377.329 376.375C-381.685 377.897 -387.087 378.69 -392.529 378.773ZM-188.957 -32.1668L-194.829 -27.8247L-201.911 -31.088L-196.117 -35.243L-188.957 -32.1668ZM-198.637 -36.3257L-204.364 -32.2185L-211.359 -35.4419L-205.712 -39.3653L-198.637 -36.3257ZM-208.221 -40.4437L-213.801 -36.5672L-220.699 -39.746L-215.201 -43.4424L-208.221 -40.4437ZM-217.711 -44.5212L-223.14 -40.8712L-229.943 -44.006L-224.597 -47.4796L-217.711 -44.5212ZM-227.085 -48.5484L-232.361 -45.1202L-239.06 -48.2072L-233.868 -51.4631L-227.085 -48.5484ZM-236.347 -52.5279L-241.467 -49.3165L-248.035 -52.3435L-243.001 -55.3868L-236.347 -52.5279ZM-245.478 -56.4511L-250.44 -53.4515L-256.894 -56.4257L-252.019 -59.2616L-245.478 -56.4511ZM-254.474 -60.3165L-259.276 -57.5233L-265.605 -60.4401L-260.892 -63.0741L-254.474 -60.3165ZM-263.326 -64.1197L-267.965 -61.5273L-274.144 -64.3751L-269.595 -66.8134L-263.326 -64.1197ZM-272.024 -67.8567L-276.497 -65.4592L-282.52 -68.2348L-278.137 -70.4833L-272.024 -67.8567ZM-280.554 -71.5219L-284.86 -69.3131L-290.705 -72.0067L-286.489 -74.072L-280.554 -71.5219ZM-288.911 -75.1127L-293.048 -73.0863L-298.698 -75.6902L-294.652 -77.579L-288.911 -75.1127ZM-297.058 -78.6131L-301.024 -76.762L-306.498 -79.2845L-302.622 -81.0036L-297.058 -78.6131ZM-305.002 -82.026L-308.796 -80.3433L-314.029 -82.7549L-313.109 -83.1413C-312.174 -83.5345 -311.173 -83.8957 -310.116 -84.2234L-305.002 -82.026ZM-315.732 -84.0723L-316.336 -83.8182L-320.924 -85.9325C-319.454 -86.3036 -317.895 -86.6137 -316.269 -86.8595C-316.082 -86.7841 -315.897 -86.7072 -315.715 -86.6288L-312.497 -85.2463C-313.636 -84.8886 -314.717 -84.4968 -315.732 -84.0723ZM-319.22 -87.8677C-320.608 -87.618 -321.946 -87.3255 -323.223 -86.9918L-326.154 -88.3425C-324.83 -88.4669 -323.486 -88.5489 -322.136 -88.5885C-321.129 -88.3777 -320.154 -88.1374 -319.22 -87.8677ZM-328.616 -89.5077C-328.66 -89.5025 -328.704 -89.4972 -328.749 -89.4919C-328.801 -89.4855 -328.854 -89.4791 -328.907 -89.4726L-328.964 -89.4926L-329.021 -89.5128C-329.053 -89.5241 -329.086 -89.5353 -329.118 -89.5464C-329.009 -89.5385 -328.9 -89.5302 -328.791 -89.5217C-328.733 -89.5171 -328.675 -89.5125 -328.616 -89.5077ZM-953.578 144.796C-955.685 146.384 -956.634 148.184 -956.245 150.015C-955.776 152.223 -953.327 154.314 -949.349 155.92L-942.655 158.615C-941.86 158.2 -940.988 157.803 -940.042 157.429L-931.794 154.156L-953.578 144.796ZM-929.415 155.178L-937.505 158.388C-938.478 158.775 -939.362 159.188 -940.152 159.623L-917.435 168.767L-907.502 164.593L-929.415 155.178ZM-905.117 165.618L-914.971 169.759L-892.811 178.679L-883.908 174.73L-905.117 165.618ZM-881.521 175.756L-890.347 179.671L-868.915 188.298L-860.965 184.588L-881.521 175.756ZM-858.572 185.616L-866.447 189.291L-845.689 197.647L-838.625 194.187L-858.572 185.616ZM-836.209 195.224L-843.2 198.649L-823.055 206.758L-816.815 203.557L-836.209 195.224ZM-814.391 204.599L-820.56 207.763L-800.983 215.643L-795.511 212.71L-814.391 204.599ZM-793.076 213.757L-798.477 216.651L-779.428 224.319L-774.675 221.663L-793.076 213.757ZM-772.235 222.711L-776.92 225.329L-758.353 232.803L-754.272 230.429L-772.235 222.711ZM-751.823 231.481L-755.837 233.816L-737.728 241.105L-734.278 239.02L-751.823 231.481ZM-451.792 358.335L-453.41 357.639L-449.425 359.148L-448.701 359.44L-451.792 358.335ZM-412.551 375.195L-425.844 369.483L-407.091 376.19L-402.227 378.148C-403.482 377.959 -404.704 377.729 -405.876 377.457L-412.551 375.195ZM-398.397 379.99C-398.102 380.011 -397.807 380.03 -397.511 380.046L-393.681 381.588L-398.397 379.99ZM-389.203 380.033L-356.784 392.31L-347.824 395.514C-340.127 396.087 -331.846 395.251 -325.781 392.986L285.349 164.823C290.774 162.796 293.523 159.964 292.904 157.052L292.92 157.051C292.451 154.843 290 152.746 286.04 151.145L-179.45 -36.221L-184.657 -32.3707L237.15 148.861C241.241 150.621 243.67 152.794 244.17 155.147C244.89 158.513 241.592 161.74 235.139 164.002L-374.959 377.404C-379.099 378.852 -384.067 379.724 -389.203 380.033ZM-187.202 -33.4644L-182.056 -37.2699L-189.252 -40.1664L-194.328 -36.526L-187.202 -33.4644ZM-196.848 -37.6086L-191.833 -41.2052L-198.944 -44.0675L-203.887 -40.633L-196.848 -37.6086ZM-206.397 -41.7113L-201.515 -45.1027L-208.531 -47.9265L-213.339 -44.6941L-206.397 -41.7113ZM-215.85 -45.7729L-211.105 -48.9627L-218.027 -51.7488L-222.696 -48.7146L-215.85 -45.7729ZM-225.184 -49.7834L-220.579 -52.7758L-227.398 -55.5209L-231.927 -52.6806L-225.184 -49.7834ZM-234.405 -53.7454L-229.942 -56.5447L-236.631 -59.2371L-241.017 -56.586L-234.405 -53.7454ZM-243.494 -57.6503L-239.175 -60.2611L-245.751 -62.9079L-249.99 -60.4416L-243.494 -57.6503ZM-252.446 -61.4965L-248.274 -63.9235L-254.726 -66.5205L-258.817 -64.234L-252.446 -61.4965ZM-261.251 -65.2796L-257.228 -67.5277L-263.53 -70.0643L-267.471 -67.9521L-261.251 -65.2796ZM-269.899 -68.9955L-266.028 -71.07L-272.172 -73.543L-275.96 -71.5998L-269.899 -68.9955ZM-278.377 -72.6383L-274.661 -74.5447L-280.624 -76.9451L-284.258 -75.165L-278.377 -72.6383ZM-286.68 -76.2057L-283.12 -77.9497L-288.885 -80.2702L-292.363 -78.6472L-286.68 -76.2057ZM-294.77 -79.6813L-291.435 -81.2375L-291.367 -81.2692L-296.497 -83.3341C-297.83 -82.9542 -299.091 -82.5228 -300.26 -82.0404L-294.77 -79.6813ZM-302.631 -83.0588C-301.48 -83.5249 -300.254 -83.9478 -298.965 -84.3273L-302.279 -85.6612C-302.427 -85.7211 -302.578 -85.7802 -302.73 -85.8383C-304.277 -85.618 -305.766 -85.3423 -307.181 -85.0138L-302.631 -83.0588ZM-309.597 -86.052C-308.38 -86.3498 -307.113 -86.6126 -305.804 -86.8391C-306.722 -87.0921 -307.676 -87.3182 -308.658 -87.5173C-309.963 -87.4825 -311.249 -87.4103 -312.507 -87.3023L-309.597 -86.052ZM-315.393 -88.4326L-315.387 -88.4333L-315.398 -88.4342L-315.393 -88.4326ZM-944.775 166.212C-945.173 164.335 -944.203 162.481 -942.049 160.843L-919.846 169.78L-928.956 173.608C-929.805 173.964 -930.591 174.339 -931.312 174.729L-937.096 172.539C-941.541 170.852 -944.261 168.608 -944.775 166.212ZM-926.35 174.54L-917.383 170.772L-895.156 179.719L-905.74 184.413L-928.738 175.704C-928.019 175.296 -927.222 174.907 -926.35 174.54ZM-903.205 185.374L-892.693 180.711L-871.198 189.364L-880.816 193.853L-903.205 185.374ZM-878.279 194.814L-868.73 190.357L-847.913 198.737L-856.636 203.01L-878.279 194.814ZM-854.079 203.978L-845.424 199.739L-825.224 207.871L-833.114 211.918L-854.079 203.978ZM-830.552 212.888L-822.728 208.875L-803.099 216.777L-810.214 220.59L-830.552 212.888ZM-807.643 221.564L-800.593 217.786L-781.494 225.474L-787.886 229.046L-807.643 221.564ZM-785.314 230.021L-778.986 226.484L-760.371 233.977L-766.087 237.302L-785.314 230.021ZM-763.508 238.279L-757.855 234.99L-739.701 242.298L-744.784 245.37L-763.508 238.279ZM-742.191 246.352L-737.17 243.317L-719.439 250.454L-723.926 253.269L-742.191 246.352ZM-362.749 392.047L-362.431 392.175L-361.673 392.432L-362.749 392.047ZM-301.886 411.942L-343.523 397.052C-336.268 397.092 -328.971 396.069 -323.347 393.969L287.785 165.812C293.983 163.496 297.138 160.263 296.429 156.933C295.907 154.416 293.105 152.016 288.567 150.193L-177.716 -37.5035L-173.143 -40.8844L337.531 152.51C341.974 154.191 344.696 156.441 345.21 158.836L345.226 158.836C345.839 161.729 343.19 164.581 337.955 166.659L-274.223 409.578C-281.621 412.518 -292.57 413.312 -301.886 411.942ZM-175.805 -41.8924L-180.322 -38.5525L-187.483 -41.4352L-183.03 -44.6285L-175.805 -41.8924ZM-185.667 -45.6272L-190.064 -42.474L-197.138 -45.3218L-192.807 -48.3311L-185.667 -45.6272ZM-195.436 -49.3267L-199.71 -46.3571L-206.688 -49.1658L-202.48 -51.9944L-195.436 -49.3267ZM-205.113 -52.9914L-209.262 -50.2021L-216.144 -52.9724L-212.064 -55.6237L-205.113 -52.9914ZM-214.674 -56.6123L-218.695 -53.9995L-225.474 -56.7279L-221.523 -59.2059L-214.674 -56.6123ZM-224.127 -60.192L-228.017 -57.7518L-234.663 -60.4268L-230.843 -62.7355L-224.127 -60.192ZM-233.449 -63.7223L-237.207 -61.4508L-243.737 -64.0795L-240.052 -66.223L-233.449 -63.7223ZM-242.638 -67.2022L-246.26 -65.0951L-252.664 -67.673L-249.116 -69.6556L-242.638 -67.2022ZM-251.682 -70.6273L-255.166 -68.6802L-261.417 -71.1966L-258.009 -73.0233L-251.682 -70.6273ZM-260.572 -73.9941L-263.916 -72.2023L-270.006 -74.654L-266.74 -76.3297L-260.572 -73.9941ZM-269.295 -77.2974L-272.495 -75.6558L-278.402 -78.0337L-276.488 -78.9715C-276.083 -79.1698 -275.665 -79.3616 -275.234 -79.5468L-269.295 -77.2974ZM-279.29 -79.8262L-280.898 -79.0384L-286.478 -81.2845C-285.345 -81.7072 -284.132 -82.0902 -282.851 -82.4311L-277.785 -80.5128C-278.304 -80.2924 -278.806 -80.0635 -279.29 -79.8262ZM-285.434 -83.4092C-286.664 -83.0662 -287.836 -82.6879 -288.942 -82.2762L-293.445 -84.089C-292.068 -84.3818 -290.638 -84.6265 -289.172 -84.8224C-289.056 -84.7802 -288.941 -84.7374 -288.827 -84.6943L-285.434 -83.4092ZM-292.353 -85.8144C-293.591 -85.6103 -294.8 -85.3741 -295.972 -85.1062L-298.849 -86.2643C-297.632 -86.36 -296.39 -86.4236 -295.13 -86.454C-294.174 -86.2643 -293.246 -86.0508 -292.353 -85.8144ZM-930.594 176.929C-932.761 178.612 -933.737 180.513 -933.334 182.417C-932.788 185.008 -929.767 187.402 -924.838 189.169L-920.055 190.88C-919.377 190.501 -918.639 190.134 -917.842 189.781L-908.085 185.453L-930.594 176.929ZM-905.549 186.413L-915.181 190.685C-915.999 191.048 -916.747 191.427 -917.423 191.821L-894.231 200.115L-883.095 194.917L-905.549 186.413ZM-880.558 195.877L-891.63 201.045L-869.083 209.108L-858.854 204.097L-880.558 195.877ZM-856.297 205.065L-866.462 210.045L-844.662 217.841L-835.275 213.026L-856.297 205.065ZM-832.712 213.997L-842.037 218.78L-820.923 226.33L-812.32 221.719L-832.712 213.997ZM-809.749 222.693L-818.292 227.271L-797.813 234.594L-789.941 230.195L-809.749 222.693ZM-787.368 231.169L-795.182 235.536L-775.283 242.652L-768.092 238.469L-787.368 231.169ZM-765.514 239.445L-772.647 243.594L-753.295 250.515L-746.742 246.554L-765.514 239.445ZM-744.15 247.536L-750.646 251.462L-731.795 258.203L-725.841 254.469L-744.15 247.536ZM-723.238 255.455L-729.136 259.154L-710.759 265.726L-705.367 262.223L-723.238 255.455ZM-702.746 263.215L-708.082 266.683L-690.138 273.1L-685.276 269.831L-702.746 263.215ZM-296.492 413.871C-287.644 414.314 -278.381 413.201 -271.684 410.544L340.508 167.618C346.455 165.26 349.465 162.016 348.768 158.722C348.194 155.998 345.089 153.442 340.033 151.528L-171.419 -42.1594L-167.411 -45.1229L389.054 153.879C393.982 155.64 397.005 158.041 397.551 160.631L397.553 160.637C398.178 163.517 395.63 166.389 390.568 168.514L-222.659 426.189C-232.01 430.117 -247.454 430.599 -258.263 427.467L-262.261 426.112L-296.492 413.871ZM-174.081 -43.1674L-170.124 -46.093L-177.373 -48.6854L-181.271 -45.8902L-174.081 -43.1674ZM-183.908 -46.8889L-180.062 -49.6469L-187.226 -52.2088L-191.011 -49.5789L-183.908 -46.8889ZM-193.64 -50.5745L-189.907 -53.1678L-196.975 -55.6955L-200.646 -53.2277L-193.64 -50.5745ZM-203.279 -54.2247L-199.662 -56.6563L-206.636 -59.1504L-210.189 -56.8417L-203.279 -54.2247ZM-212.8 -57.8303L-209.301 -60.1035L-216.173 -62.561L-219.606 -60.4079L-212.8 -57.8303ZM-222.21 -61.394L-218.833 -63.5121L-225.571 -65.922L-228.882 -63.9208L-222.21 -61.394ZM-231.488 -64.9076L-228.234 -66.8743L-234.859 -69.2435L-238.045 -67.3906L-231.488 -64.9076ZM-240.63 -68.3698L-237.503 -70.189L-244.003 -72.5134L-247.06 -70.8048L-240.63 -68.3698ZM-249.626 -71.7765L-246.628 -73.4521L-252.974 -75.7217L-255.901 -74.153L-249.626 -71.7765ZM-258.465 -75.1238L-255.598 -76.6601L-261.575 -78.7975C-262.541 -78.4213 -263.453 -78.0155 -264.301 -77.5805L-264.578 -77.4387L-258.465 -75.1238ZM-267.133 -78.4064L-267.127 -78.4095C-266.208 -78.8804 -265.224 -79.3207 -264.182 -79.7299L-269.201 -81.5245C-270.418 -81.2243 -271.587 -80.8871 -272.696 -80.5132L-267.133 -78.4064ZM-275.251 -81.4807C-274.18 -81.8474 -273.059 -82.1834 -271.895 -82.4882L-275.378 -83.7335C-275.407 -83.7441 -275.437 -83.7547 -275.466 -83.7652C-275.513 -83.7818 -275.56 -83.7984 -275.608 -83.815C-277.013 -83.6378 -278.376 -83.4189 -279.686 -83.1603L-275.251 -81.4807ZM-282.349 -84.1689C-281.243 -84.4079 -280.101 -84.6211 -278.927 -84.8074C-279.782 -85.0238 -280.665 -85.2201 -281.571 -85.3957C-282.773 -85.3711 -283.971 -85.3163 -285.156 -85.2317L-282.349 -84.1689ZM-921.911 198.617C-922.328 196.661 -921.389 194.75 -919.229 193.04L-896.494 201.171L-906.756 205.96C-907.51 206.312 -908.209 206.677 -908.851 207.052L-912.567 205.793C-917.993 203.953 -921.318 201.401 -921.911 198.617ZM-904.028 206.831L-893.893 202.101L-871.284 210.186L-882.861 215.858L-906.162 207.963C-905.517 207.572 -904.805 207.194 -904.028 206.831ZM-880.181 216.765L-868.664 211.123L-846.805 218.941L-857.527 224.441L-880.181 216.765ZM-854.844 225.349L-844.18 219.879L-823.012 227.449L-832.94 232.77L-854.844 225.349ZM-830.251 233.681L-820.38 228.391L-799.85 235.733L-809.039 240.868L-830.251 233.681ZM-806.352 241.778L-797.218 236.674L-777.27 243.808L-785.769 248.752L-806.352 241.778ZM-783.079 249.663L-774.634 244.75L-755.235 251.688L-763.089 256.435L-783.079 249.663ZM-760.388 257.351L-752.586 252.635L-733.69 259.392L-740.94 263.939L-760.388 257.351ZM-738.23 264.857L-731.032 260.343L-712.612 266.93L-719.295 271.272L-738.23 264.857ZM-716.567 272.197L-709.936 267.887L-691.951 274.319L-698.1 278.453L-716.567 272.197ZM-695.373 279.377L-689.273 275.277L-671.695 281.563L-677.342 285.486L-695.373 279.377ZM-674.611 286.411L-669.014 282.522L-651.813 288.673L-656.986 292.382L-674.611 286.411ZM-210.049 443.801L-249.025 430.596C-238.807 431.493 -227.657 430.311 -220.054 427.115L393.173 169.44C398.899 167.031 401.794 163.774 401.091 160.511C400.466 157.582 397.04 154.864 391.452 152.866L-165.706 -46.3836L-162.197 -48.9785L440.575 155.236C446.017 157.076 449.324 159.622 449.919 162.412L449.934 162.411C450.569 165.322 448.163 168.144 443.205 170.343L-171.069 442.78C-181.113 447.228 -198.578 447.685 -210.049 443.801ZM-164.957 -49.9136L-168.419 -47.3538L-175.633 -49.9335L-172.226 -52.3764L-164.957 -49.9136ZM-174.963 -53.3035L-178.321 -50.895L-185.448 -53.4436L-182.147 -55.7373L-174.963 -53.3035ZM-184.877 -56.6624L-188.13 -54.4026L-195.159 -56.9164L-191.965 -59.0637L-184.877 -56.6624ZM-194.702 -59.9909L-197.846 -57.8773L-204.779 -60.3569L-201.696 -62.3605L-194.702 -59.9909ZM-204.412 -63.2805L-207.445 -61.3099L-214.274 -63.7522L-211.303 -65.6153L-204.412 -63.2805ZM-214.015 -66.5339L-216.933 -64.7033L-223.627 -67.0971L-220.772 -68.8232L-214.015 -66.5339ZM-223.488 -69.7434L-226.29 -68.0495L-232.868 -70.4018L-230.131 -71.994L-223.488 -69.7434ZM-232.829 -72.9081L-235.512 -71.3473L-241.962 -73.654L-239.913 -74.7994C-239.724 -74.905 -239.531 -75.0092 -239.335 -75.1121L-232.829 -72.9081ZM-242.817 -75.5817L-244.587 -74.5927L-250.831 -76.8255C-249.922 -77.251 -248.948 -77.6493 -247.914 -78.0189L-242.007 -76.0174C-242.283 -75.8745 -242.553 -75.7292 -242.817 -75.5817ZM-250.601 -78.9292C-251.601 -78.5632 -252.549 -78.1727 -253.441 -77.7589L-258.917 -79.7174C-257.845 -80.0464 -256.725 -80.3444 -255.565 -80.611L-250.601 -78.9292ZM-258.362 -81.5583C-259.462 -81.2849 -260.528 -80.9853 -261.552 -80.6597L-265.923 -82.2229C-264.661 -82.4526 -263.363 -82.6464 -262.039 -82.8039C-262.007 -82.7933 -261.975 -82.7825 -261.943 -82.7718L-258.362 -81.5583ZM-265.493 -83.793C-266.59 -83.626 -267.667 -83.4358 -268.719 -83.2228L-271.47 -84.2067C-270.772 -84.2518 -270.065 -84.2871 -269.353 -84.3125C-268.929 -84.3276 -268.505 -84.3391 -268.082 -84.347C-267.2 -84.1817 -266.336 -83.9971 -265.493 -83.793ZM-907.92 209.197C-910.03 210.931 -910.936 212.856 -910.519 214.819C-909.876 217.803 -906.265 220.505 -900.311 222.418L-897.714 223.254C-897.085 222.867 -896.4 222.491 -895.659 222.127L-885.068 216.939L-907.92 209.197ZM-882.388 217.847L-892.873 222.983C-893.632 223.355 -894.327 223.742 -894.956 224.142L-871.601 231.66L-859.674 225.542L-882.388 217.847ZM-856.991 226.451L-868.864 232.541L-846.153 239.852L-835.03 233.891L-856.991 226.451ZM-832.342 234.802L-843.412 240.735L-821.451 247.805L-811.076 242.007L-832.342 234.802ZM-808.389 242.917L-818.712 248.686L-797.432 255.537L-787.755 249.907L-808.389 242.917ZM-785.066 250.819L-794.692 256.419L-774.053 263.063L-765.028 257.607L-785.066 250.819ZM-762.326 258.522L-771.303 263.948L-751.248 270.404L-742.833 265.127L-762.326 258.522ZM-740.123 266.045L-748.49 271.292L-728.988 277.57L-721.145 272.474L-740.123 266.045ZM-718.417 273.399L-726.212 278.464L-707.213 284.58L-699.909 279.669L-718.417 273.399ZM-697.181 280.593L-704.44 285.473L-685.909 291.438L-679.111 286.715L-697.181 280.593ZM-676.381 287.64L-683.133 292.332L-665.038 298.157L-658.718 293.624L-676.381 287.64ZM-655.981 294.551L-662.257 299.052L-644.578 304.743L-638.708 300.403L-655.981 294.551ZM-202.28 447.128L-159.72 460.828C-147.615 464.724 -129.582 464.074 -119.509 459.378L495.812 172.18C500.615 169.939 502.922 167.104 502.305 164.199L502.291 164.205C501.646 161.215 498.038 158.519 492.081 156.6L-157.442 -52.4944L-160.501 -50.2326L442.917 154.201C449.036 156.277 452.796 159.15 453.462 162.299C454.157 165.586 451.457 168.766 445.865 171.248L-168.407 443.69C-177.044 447.519 -190.594 448.724 -202.28 447.128ZM-163.261 -51.1677L-160.246 -53.3971L-167.533 -55.7426L-170.495 -53.6183L-163.261 -51.1677ZM-173.231 -54.5455L-170.314 -56.6379L-177.514 -58.9559L-180.377 -56.9666L-173.231 -54.5455ZM-183.108 -57.8916L-180.29 -59.8495L-187.395 -62.1366L-190.157 -60.2797L-183.108 -57.8916ZM-192.893 -61.2069L-190.178 -63.0326L-197.188 -65.2894L-199.846 -63.5625L-192.893 -61.2069ZM-202.562 -64.4825L-199.951 -66.1788L-206.859 -68.4025L-209.41 -66.8026L-202.562 -64.4825ZM-212.121 -67.7212L-209.619 -69.2909L-216.391 -71.4711L-218.833 -69.995L-212.121 -67.7212ZM-221.549 -70.9153L-219.157 -72.3615L-225.685 -74.4631C-226.4 -74.1254 -227.076 -73.7718 -227.709 -73.4031L-228.144 -73.1497L-221.549 -70.9153ZM-230.842 -74.0637L-230.67 -74.1642C-229.965 -74.5739 -229.212 -74.9667 -228.415 -75.342L-234.259 -77.223C-235.245 -76.8971 -236.185 -76.5471 -237.072 -76.1741L-230.842 -74.0637ZM-239.738 -77.0776C-238.877 -77.4424 -237.97 -77.7877 -237.021 -78.1124L-241.94 -79.6958C-243.044 -79.4575 -244.11 -79.1935 -245.132 -78.9048L-239.738 -77.0776ZM-247.867 -79.8317C-246.898 -80.1195 -245.891 -80.3868 -244.851 -80.6328L-248.474 -81.7993C-249.726 -81.659 -250.957 -81.4876 -252.159 -81.2855L-247.867 -79.8317ZM-255.083 -82.2762C-254.092 -82.4658 -253.08 -82.6361 -252.052 -82.7868C-252.857 -82.9748 -253.683 -83.1465 -254.526 -83.3017C-255.608 -83.2845 -256.686 -83.2445 -257.756 -83.1818L-255.083 -82.2762ZM-899.142 231.021C-899.557 229.07 -898.686 227.139 -896.652 225.389L-873.75 232.762L-884.558 238.307C-885.3 238.687 -885.985 239.081 -886.611 239.486L-888.038 239.048C-894.418 237.089 -898.464 234.162 -899.142 231.021ZM-881.718 239.135L-871.012 233.643L-848.244 240.973L-860.444 247.511L-883.796 240.349C-883.172 239.93 -882.478 239.525 -881.718 239.135ZM-857.652 248.367L-845.503 241.855L-823.487 248.943L-834.928 255.337L-857.652 248.367ZM-832.141 256.192L-820.748 249.825L-799.417 256.691L-810.152 262.936L-832.141 256.192ZM-807.365 263.791L-796.678 257.574L-775.99 264.233L-786.065 270.323L-807.365 263.791ZM-783.268 271.181L-773.239 265.119L-753.139 271.59L-762.596 277.521L-783.268 271.181ZM-759.793 278.381L-750.381 272.478L-730.834 278.77L-739.714 284.539L-759.793 278.381ZM-736.894 285.404L-728.059 279.664L-709.018 285.793L-717.353 291.397L-736.894 285.404ZM-714.537 292.261L-706.245 286.686L-687.674 292.665L-695.498 298.1L-714.537 292.261ZM-692.68 298.965L-684.898 293.558L-666.765 299.396L-674.107 304.661L-692.68 298.965ZM-671.285 305.527L-663.984 300.291L-646.269 305.994L-653.156 311.087L-671.285 305.527ZM-650.317 311.958L-643.47 306.895L-172.98 458.358L-650.317 311.958ZM-109.391 477.861L-157.478 463.113C-144.203 466.071 -126.9 464.988 -116.79 460.268L498.531 173.07C503.936 170.548 506.523 167.362 505.834 164.092C505.115 160.732 501.049 157.696 494.354 155.544L-155.753 -53.7432L-153.088 -55.7143L543.601 157.957C549.981 159.916 554.025 162.837 554.69 165.985L554.706 165.984C555.321 168.884 553.099 171.739 548.436 174.022L-67.9336 475.976C-78.0329 480.93 -96.6332 481.774 -109.391 477.861ZM-155.933 -56.5869L-158.558 -54.6459L-165.807 -56.9798L-163.233 -58.8259L-155.933 -56.5869ZM-166.056 -59.6915L-168.589 -57.8751L-175.751 -60.1809L-173.27 -61.9043L-166.056 -59.6915ZM-176.088 -62.7685L-178.527 -61.0745L-185.591 -63.3488L-183.207 -64.9518L-176.088 -62.7685ZM-186.034 -65.8187L-188.375 -64.2448L-195.344 -66.4882L-193.058 -67.9731L-186.034 -65.8187ZM-195.865 -68.8339L-198.106 -67.3776L-204.97 -69.5872L-203.32 -70.6221C-203.142 -70.7338 -202.96 -70.8442 -202.775 -70.9532L-195.865 -68.8339ZM-206.346 -71.3432L-207.73 -70.4757L-214.415 -72.6278C-213.662 -73.0326 -212.857 -73.4184 -212.005 -73.7841L-205.571 -71.8107C-205.836 -71.6573 -206.094 -71.5014 -206.346 -71.3432ZM-214.807 -74.6432C-215.635 -74.2836 -216.422 -73.9066 -217.165 -73.5131L-223.282 -75.4824C-222.419 -75.8115 -221.513 -76.121 -220.567 -76.4101L-214.807 -74.6432ZM-223.418 -77.2842C-224.321 -76.9949 -225.191 -76.6881 -226.023 -76.3648L-231.347 -78.0787C-230.366 -78.3344 -229.348 -78.5688 -228.299 -78.7812L-223.418 -77.2842ZM-231.316 -79.7066C-232.299 -79.4856 -233.254 -79.2466 -234.178 -78.9901L-238.402 -80.3499C-237.264 -80.5273 -236.095 -80.6795 -234.899 -80.8054L-231.316 -79.7066ZM-238.623 -81.7919C-239.59 -81.6559 -240.538 -81.5039 -241.466 -81.3362L-244.03 -82.1618C-243.012 -82.2148 -241.987 -82.2481 -240.96 -82.2614C-240.168 -82.1195 -239.388 -81.963 -238.623 -81.7919ZM-885.429 241.612C-887.368 243.368 -888.191 245.292 -887.781 247.224C-887.065 250.578 -882.701 253.654 -875.78 255.679L-875.545 255.748C-874.908 255.312 -874.207 254.888 -873.444 254.479L-862.536 248.633L-885.429 241.612ZM-859.745 249.489L-870.562 255.287C-871.342 255.704 -872.049 256.138 -872.682 256.586L-849.377 263.412L-836.965 256.475L-859.745 249.489ZM-834.178 257.33L-846.544 264.242L-823.832 270.894L-812.136 264.09L-834.178 257.33ZM-809.349 264.945L-821.001 271.723L-799.027 278.159L-787.999 271.493L-809.349 264.945ZM-785.203 272.35L-796.188 278.991L-774.887 285.23L-764.483 278.705L-785.203 272.35ZM-761.68 279.564L-772.042 286.063L-751.374 292.116L-741.555 285.736L-761.68 279.564ZM-738.735 286.601L-748.513 292.954L-728.421 298.839L-719.152 292.607L-738.735 286.601ZM-716.336 293.471L-725.565 299.675L-706.009 305.403L-697.257 299.322L-716.336 293.471ZM-694.439 300.186L-703.152 306.24L-684.093 311.822L-675.827 305.894L-694.439 300.186ZM-673.005 306.76L-681.232 312.66L-662.646 318.104L-654.839 312.331L-673.005 306.76ZM-652 313.202L-659.769 318.947L-59.0625 494.888C-45.6549 498.812 -26.5025 497.775 -16.3714 492.58L601.045 175.865C605.57 173.546 607.722 170.669 607.107 167.77L607.093 167.777C606.378 164.429 602.013 161.346 595.107 159.321L-149.112 -58.6542L-151.418 -56.9493L545.806 156.886C552.955 159.077 557.478 162.354 558.235 165.877C558.933 169.128 556.43 172.329 551.209 174.885L-65.1605 476.838C-76.4716 482.379 -97.3107 483.321 -111.594 478.938L-652 313.202ZM-154.263 -57.8218L-151.995 -59.4986L-159.308 -61.6406L-161.527 -60.0497L-154.263 -57.8218ZM-164.349 -60.9153L-162.169 -62.4786L-169.397 -64.5955L-171.526 -63.1164L-164.349 -60.9153ZM-174.344 -63.9807L-172.254 -65.4324L-179.385 -67.521L-181.422 -66.1516L-174.344 -63.9807ZM-184.249 -67.0186L-182.253 -68.3608L-189.151 -70.3812C-189.854 -70.0107 -190.515 -69.6251 -191.132 -69.2252L-191.232 -69.1601L-184.249 -67.0186ZM-194.037 -70.0206C-193.395 -70.4316 -192.71 -70.8286 -191.983 -71.2108L-198.344 -73.0738C-199.162 -72.7536 -199.944 -72.4156 -200.687 -72.0601L-194.037 -70.0206ZM-203.474 -72.9147C-202.75 -73.2619 -201.991 -73.594 -201.201 -73.9107L-206.892 -75.5775C-207.79 -75.3215 -208.655 -75.0483 -209.486 -74.7586L-203.474 -72.9147ZM-212.317 -75.6268C-211.522 -75.9128 -210.697 -76.1847 -209.844 -76.4422L-214.659 -77.8524C-215.65 -77.6638 -216.614 -77.4566 -217.549 -77.2314L-212.317 -75.6268ZM-220.485 -78.1319C-219.611 -78.359 -218.711 -78.5716 -217.789 -78.769L-221.351 -79.8124C-222.476 -79.7006 -223.578 -79.5663 -224.654 -79.4106L-220.485 -78.1319ZM-227.85 -80.3906C-226.986 -80.5386 -226.105 -80.6737 -225.209 -80.7955C-225.95 -80.9549 -226.704 -81.1011 -227.467 -81.2342C-228.418 -81.2232 -229.373 -81.1954 -230.328 -81.1507L-227.85 -80.3906ZM-876.433 263.434C-876.839 261.522 -876.071 259.613 -874.238 257.859L-851.405 264.546L-862.329 270.651C-863.123 271.095 -863.848 271.556 -864.5 272.029C-871.379 269.936 -875.702 266.829 -876.433 263.434ZM-859.423 271.439L-848.573 265.376L-825.807 272.043L-838.386 279.361L-861.609 272.851C-860.963 272.364 -860.233 271.893 -859.423 271.439ZM-835.515 280.166L-822.977 272.872L-800.952 279.323L-812.854 286.517L-835.515 280.166ZM-809.976 287.324L-798.114 280.154L-776.764 286.407L-788.033 293.475L-809.976 287.324ZM-785.149 294.283L-773.919 287.241L-753.207 293.307L-763.883 300.244L-785.149 294.283ZM-760.983 301.057L-750.345 294.145L-730.211 300.042L-740.331 306.846L-760.983 301.057ZM-737.437 307.657L-727.355 300.879L-707.758 306.618L-717.355 313.286L-737.437 307.657ZM-714.461 314.097L-704.901 307.455L-685.803 313.049L-694.908 319.578L-714.461 314.097ZM-692.011 320.39L-682.942 313.886L-664.319 319.341L-672.96 325.731L-692.011 320.39ZM-670.047 326.547L-661.441 320.184L-61.1781 495.992C-46.216 500.378 -24.8326 499.219 -13.5286 493.415L603.888 176.699C608.94 174.109 611.344 170.895 610.651 167.662C609.855 163.92 604.964 160.484 597.256 158.222L-147.443 -59.8886L-145.467 -61.3492L646.628 160.678C654.075 162.769 658.775 166.006 659.541 169.56C660.156 172.459 658.073 175.351 653.67 177.707L35.2066 509.184C25.0476 514.631 5.32751 515.861 -8.71655 511.92L-670.047 326.547ZM-148.386 -62.1673L-150.326 -60.733L-157.602 -62.8642L-155.711 -64.2205L-148.386 -62.1673ZM-158.608 -65.0326L-160.463 -63.7022L-167.652 -65.8077L-166.755 -66.4312C-166.451 -66.6419 -166.136 -66.8487 -165.811 -67.0515L-158.608 -65.0326ZM-169.845 -67.1063L-170.51 -66.6446L-177.527 -68.6999C-176.888 -69.0686 -176.209 -69.4241 -175.493 -69.7657L-168.693 -67.8594C-169.091 -67.6137 -169.476 -67.3627 -169.845 -67.1063ZM-178.385 -70.576C-179.081 -70.2406 -179.745 -69.8931 -180.375 -69.5339L-186.912 -71.4487C-186.196 -71.7584 -185.447 -72.0548 -184.668 -72.3373L-178.385 -70.576ZM-187.595 -73.1579C-188.343 -72.8774 -189.063 -72.585 -189.755 -72.2812L-195.677 -74.0159C-194.881 -74.2697 -194.059 -74.5088 -193.215 -74.7329L-187.595 -73.1579ZM-196.253 -75.5847C-197.051 -75.358 -197.828 -75.1188 -198.584 -74.8672L-203.737 -76.3765C-202.856 -76.5735 -201.951 -76.7555 -201.024 -76.9219L-196.253 -75.5847ZM-204.282 -77.8352C-205.139 -77.6599 -205.978 -77.4721 -206.795 -77.2722L-210.867 -78.4648C-209.86 -78.6001 -208.831 -78.7175 -207.783 -78.8165L-204.282 -77.8352ZM-211.759 -79.7976C-212.586 -79.6895 -213.4 -79.5705 -214.2 -79.4409L-216.602 -80.1444C-215.715 -80.1809 -214.828 -80.2032 -213.944 -80.2116C-213.204 -80.085 -212.476 -79.947 -211.759 -79.7976ZM-863.084 274.135C-864.795 275.88 -865.501 277.763 -865.103 279.638C-864.376 283.049 -860.167 286.152 -853.449 288.304C-852.785 287.798 -852.039 287.304 -851.215 286.823L-840.355 280.506L-863.084 274.135ZM-837.484 281.311L-848.269 287.585C-849.129 288.087 -849.893 288.604 -850.56 289.135L-827.458 295.345L-814.772 287.677L-837.484 281.311ZM-811.894 288.484L-824.542 296.129L-801.949 302.202L-789.904 294.648L-811.894 288.484ZM-787.019 295.456L-799.027 302.987L-777.154 308.867L-765.708 301.43L-787.019 295.456ZM-762.808 302.243L-774.217 309.656L-752.996 315.361L-742.113 308.044L-762.808 302.243ZM-739.219 308.855L-750.067 316.148L-729.451 321.69L-719.096 314.495L-739.219 308.855ZM-716.202 315.307L-726.522 322.477L-706.467 327.868L-696.609 320.799L-716.202 315.307ZM-693.712 321.611L-703.536 328.656L-684.012 333.904L-674.624 326.961L-693.712 321.611ZM-671.711 327.777L-681.067 334.695L41.6134 528.953C48.7341 530.864 57.3452 531.591 65.8858 530.992C74.411 530.394 81.8338 528.545 86.7821 525.782L706.294 179.549C710.575 177.156 712.604 174.243 711.975 171.35L711.989 171.343C711.185 167.577 706.135 164.185 698.148 162.035L-142.116 -63.8249C-142.2 -63.7649 -142.282 -63.7046 -142.364 -63.6441L-143.803 -62.5798L648.708 159.564C657.005 161.889 662.232 165.486 663.084 169.447C663.772 172.667 661.45 175.889 656.551 178.515L38.0861 509.986C26.7717 516.048 4.84208 517.418 -10.7971 513.034L-671.711 327.777ZM-146.722 -63.398L-145.522 -64.2851C-145.372 -64.3965 -145.218 -64.5071 -145.062 -64.6168L-152.198 -66.5348C-152.833 -66.1805 -153.433 -65.8143 -153.996 -65.4369L-146.722 -63.398ZM-156.882 -66.246C-156.324 -66.6135 -155.734 -66.971 -155.112 -67.3181L-161.814 -69.1196C-162.504 -68.8204 -163.167 -68.5088 -163.8 -68.1849L-156.882 -66.246ZM-166.678 -68.9917C-166.062 -69.3085 -165.42 -69.6147 -164.754 -69.9099L-170.965 -71.5793C-171.707 -71.3298 -172.425 -71.0687 -173.116 -70.7964L-166.678 -68.9917ZM-176.032 -71.6138C-175.369 -71.8818 -174.684 -72.1402 -173.976 -72.3888L-179.543 -73.8851C-180.342 -73.6858 -181.12 -73.4744 -181.875 -73.2515L-176.032 -71.6138ZM-184.87 -74.091C-184.158 -74.313 -183.427 -74.5253 -182.677 -74.7277L-187.37 -75.9889C-188.236 -75.8421 -189.089 -75.6817 -189.925 -75.508L-184.87 -74.091ZM-193.089 -76.395C-192.319 -76.5721 -191.534 -76.7385 -190.737 -76.8941L-194.201 -77.825C-195.181 -77.7378 -196.146 -77.6349 -197.092 -77.517L-193.089 -76.395ZM-200.584 -78.4957C-199.844 -78.6095 -199.093 -78.7147 -198.332 -78.811C-199.006 -78.9469 -199.69 -79.0732 -200.383 -79.1896C-201.21 -79.1837 -202.039 -79.1658 -202.868 -79.1359L-200.584 -78.4957ZM-853.773 295.843C-854.173 293.975 -853.55 292.143 -851.959 290.423L-829.364 296.497L-840.115 302.996C-840.959 303.508 -841.717 304.035 -842.387 304.573C-848.954 302.367 -853.049 299.265 -853.773 295.843ZM-837.129 303.738L-826.448 297.281L-803.807 303.368L-816.563 311.368L-838.989 305.576C-839.167 305.53 -839.344 305.484 -839.519 305.437C-838.834 304.854 -838.037 304.287 -837.129 303.738ZM-813.607 312.131L-800.885 304.153L-778.967 310.045L-791.117 317.939L-813.607 312.131ZM-788.145 318.707L-776.03 310.834L-754.766 316.55L-766.346 324.336L-788.145 318.707ZM-763.384 325.101L-751.837 317.338L-731.18 322.891L-742.226 330.565L-763.384 325.101ZM-739.264 331.33L-728.251 323.678L-708.157 329.08L-718.7 336.641L-739.264 331.33ZM-715.737 337.406L-705.226 329.867L-685.665 335.126L-695.734 342.571L-715.737 337.406ZM-692.758 343.34L-682.72 335.917L39.5853 530.083C47.4851 532.206 57.0512 533.009 66.5171 532.346C75.9965 531.677 84.2198 529.622 89.7023 526.563L709.214 180.331C713.961 177.675 716.202 174.445 715.516 171.231C714.624 167.052 709.028 163.288 700.16 160.906L-140.288 -65.0128C-139.733 -65.3408 -139.149 -65.6594 -138.537 -65.9683L749.654 163.399C758.196 165.607 763.596 169.153 764.438 173.133L764.424 173.14C765.067 176.074 763.146 178.933 758.918 181.391L138.36 542.386C133.387 545.266 125.844 547.232 117.077 547.91C108.31 548.587 99.3823 547.906 91.9434 545.986L-692.758 343.34ZM-141.51 -66.7362C-142.104 -66.4327 -142.674 -66.1208 -143.219 -65.8006L-150.035 -67.6329C-149.428 -67.9142 -148.797 -68.1862 -148.142 -68.4488L-141.51 -66.7362ZM-151.138 -69.2224C-151.766 -68.9628 -152.374 -68.695 -152.96 -68.4192L-159.282 -70.1186C-158.622 -70.3556 -157.943 -70.5828 -157.246 -70.7999L-151.138 -69.2224ZM-160.337 -71.5979C-160.996 -71.3808 -161.64 -71.1551 -162.268 -70.921L-168.03 -72.4699C-167.321 -72.6635 -166.594 -72.8476 -165.851 -73.0219L-160.337 -71.5979ZM-169.091 -73.8587C-169.784 -73.6812 -170.463 -73.4956 -171.126 -73.3021L-176.11 -74.642C-175.336 -74.7917 -174.546 -74.931 -173.742 -75.0597L-169.091 -73.8587ZM-177.231 -75.9608C-177.965 -75.8238 -178.686 -75.6783 -179.394 -75.5246L-183.281 -76.5696C-182.402 -76.6714 -181.514 -76.76 -180.618 -76.8354L-177.231 -75.9608ZM-184.869 -77.818C-185.555 -77.7342 -186.235 -77.6431 -186.909 -77.5448L-189.084 -78.1294C-188.329 -78.1523 -187.575 -78.1655 -186.822 -78.1692C-186.164 -78.0606 -185.512 -77.9435 -184.869 -77.818ZM-840.85 306.747C-842.306 308.437 -842.865 310.226 -842.476 312.043C-841.743 315.476 -837.749 318.585 -831.319 320.839C-830.642 320.268 -829.868 319.711 -829.001 319.168L-818.428 312.537L-840.85 306.747ZM-815.472 313.301L-825.988 319.896C-826.936 320.491 -827.761 321.107 -828.46 321.739C-827.894 321.899 -827.313 322.052 -826.718 322.2L-805.709 327.421L-792.935 319.121L-815.472 313.301ZM-789.963 319.888L-802.705 328.168L-780.319 333.731L-768.121 325.529L-789.963 319.888ZM-765.159 326.294L-777.326 334.474L-755.617 339.869L-743.959 331.769L-765.159 326.294ZM-740.997 332.534L-752.626 340.613L-731.544 345.852L-720.393 337.855L-740.997 332.534ZM-717.43 338.62L-728.551 346.595L-708.062 351.687L-697.39 343.796L-717.43 338.62ZM-694.413 344.564L-705.056 352.434L142.303 563.012C158.315 566.991 179.674 565.177 189.947 558.97L811.555 183.22C815.678 180.731 817.531 177.857 816.9 174.909L816.902 174.915C816.006 170.724 810.272 167.023 801.159 164.757L-134.427 -67.7457C-135.057 -67.512 -135.667 -67.2702 -136.258 -67.0205L751.583 162.256C761.054 164.7 767.003 168.624 767.949 173.021C768.632 176.272 766.54 179.428 761.863 182.153L141.287 543.142C135.817 546.336 127.443 548.508 117.755 549.261C108.064 550.009 98.1838 549.258 89.9677 547.132L-694.413 344.564ZM-139.258 -67.7953C-138.692 -68.0408 -138.108 -68.2796 -137.508 -68.5113L-143.569 -70.0176C-144.233 -69.8232 -144.881 -69.6207 -145.512 -69.4104L-139.258 -67.7953ZM-148.567 -70.1991C-147.97 -70.4074 -147.359 -70.6091 -146.733 -70.8039L-152.136 -72.1466C-152.839 -71.9918 -153.53 -71.8281 -154.208 -71.6559L-148.567 -70.1991ZM-157.402 -72.4806C-156.772 -72.6534 -156.131 -72.819 -155.48 -72.9775L-160.088 -74.1228C-160.846 -74.0081 -161.591 -73.8843 -162.324 -73.7518L-157.402 -72.4806ZM-165.733 -74.6321C-165.068 -74.7689 -164.392 -74.8989 -163.706 -75.0218L-167.052 -75.8533C-167.595 -75.8097 -168.138 -75.7612 -168.679 -75.7078C-168.971 -75.6793 -169.262 -75.6494 -169.551 -75.6182L-165.733 -74.6321ZM-173.329 -76.5938C-172.709 -76.6798 -172.081 -76.7602 -171.447 -76.8348C-172.042 -76.947 -172.643 -77.0521 -173.25 -77.1503C-173.959 -77.1487 -174.666 -77.1389 -175.371 -77.121L-173.329 -76.5938ZM-831.175 328.255C-831.553 326.488 -831.058 324.743 -829.736 323.084C-829.375 323.181 -829.01 323.275 -828.639 323.367L-807.54 328.611L-817.888 335.335C-818.773 335.911 -819.557 336.505 -820.237 337.111C-826.484 334.802 -830.45 331.646 -831.175 328.255ZM-814.833 336.048L-804.536 329.357L-782.105 334.931L-794.892 343.529L-814.456 338.843C-815.475 338.599 -816.456 338.336 -817.397 338.055C-816.685 337.366 -815.829 336.696 -814.833 336.048ZM-791.87 344.252L-779.112 335.675L-757.361 341.08L-769.603 349.586L-791.87 344.252ZM-766.582 350.309L-754.369 341.824L-733.246 347.073L-744.975 355.484L-766.582 350.309ZM-741.954 356.208L-730.254 347.817L-709.726 352.918L-720.972 361.233L-741.954 356.208ZM-717.938 361.96L-706.72 353.665L140.38 564.173C158.037 568.555 181.607 566.559 192.933 559.712L814.541 183.962C819.099 181.212 821.141 178.046 820.442 174.796C819.454 170.174 813.122 166.092 803.064 163.59L-131.642 -68.6885C-131.057 -68.869 -130.458 -69.0432 -129.847 -69.211L852.646 166.11C862.192 168.397 868.436 172.355 869.365 176.698C869.996 179.645 868.197 182.541 864.179 185.062L241.509 575.575C236.538 578.701 228.69 580.89 219.457 581.737C210.241 582.584 200.71 581.988 192.635 580.051L-717.938 361.96ZM-133.117 -69.9942C-133.688 -69.8257 -134.249 -69.6519 -134.798 -69.4728L-140.377 -70.8592C-139.757 -71.0058 -139.126 -71.1461 -138.484 -71.2798L-133.117 -69.9942ZM-141.921 -72.1028C-142.511 -71.9657 -143.092 -71.8233 -143.663 -71.6758L-148.442 -72.8633C-147.774 -72.9761 -147.099 -73.0815 -146.416 -73.1795L-141.921 -72.1028ZM-150.16 -74.0763C-150.773 -73.9707 -151.38 -73.8594 -151.98 -73.7424L-155.713 -74.6702C-154.965 -74.745 -154.215 -74.8106 -153.463 -74.8673L-150.16 -74.0763ZM-158.011 -75.8512C-158.564 -75.7881 -159.111 -75.7208 -159.654 -75.6494L-161.582 -76.1287C-160.976 -76.1413 -160.371 -76.1479 -159.767 -76.1487C-159.178 -76.0561 -158.592 -75.957 -158.011 -75.8512ZM-818.604 339.42C-819.806 341.046 -820.242 342.75 -819.874 344.467C-819.152 347.868 -815.276 351.024 -809.149 353.381C-808.462 352.741 -807.665 352.115 -806.758 351.506L-796.664 344.719L-816.313 340.013C-817.098 339.825 -817.861 339.627 -818.604 339.42ZM-793.642 345.443L-803.693 352.201C-804.727 352.897 -805.607 353.619 -806.328 354.359C-805.017 354.769 -803.627 355.145 -802.164 355.484L-784.102 359.659L-771.331 350.787L-793.642 345.443ZM-768.31 351.51L-781.054 360.364L-758.915 365.482L-746.663 356.695L-768.31 351.51ZM-743.642 357.418L-755.868 366.186L-734.385 371.152L-722.621 362.453L-743.642 357.418ZM-719.588 363.179L-731.326 371.859L242.998 597.088C251.388 599.022 261.221 599.579 270.679 598.653C280.154 597.726 288.121 595.42 293.132 592.17L916.835 186.903C920.764 184.349 922.509 181.438 921.876 178.484L921.859 178.479C920.89 173.917 914.263 169.801 904.148 167.462L-124.784 -70.3953C-125.374 -70.2791 -125.955 -70.1577 -126.527 -70.0311L854.518 164.939C865.02 167.449 871.883 171.805 872.905 176.578C873.602 179.823 871.628 183.003 867.204 185.777L244.532 576.284C239.05 579.729 230.421 582.134 220.269 583.064C210.102 583.995 199.623 583.341 190.758 581.21L-719.588 363.179ZM-129.937 -70.8479C-129.414 -70.9756 -128.883 -71.0991 -128.345 -71.2184L-132.804 -72.2493C-133.429 -72.1644 -134.046 -72.0739 -134.655 -71.9778L-129.937 -70.8479ZM-138.31 -72.8533C-137.768 -72.9536 -137.219 -73.0496 -136.664 -73.1414L-139.848 -73.8776C-140.533 -73.8292 -141.215 -73.7737 -141.892 -73.7112L-138.31 -72.8533ZM-145.999 -74.6948C-145.517 -74.7554 -145.033 -74.8126 -144.546 -74.8665C-145.08 -74.9614 -145.619 -75.0512 -146.161 -75.1357C-146.704 -75.1365 -147.248 -75.1326 -147.792 -75.1241L-145.999 -74.6948ZM-808.606 360.675C-808.964 359.006 -808.577 357.348 -807.484 355.756C-806.371 356.079 -805.21 356.381 -804.003 356.66L-785.831 360.861L-795.644 367.678C-796.57 368.32 -797.379 368.98 -798.068 369.655C-804.088 367.256 -807.874 364.093 -808.606 360.675ZM-792.553 368.353L-782.783 361.565L-760.604 366.692L-773.329 375.818L-789.906 372.115C-791.813 371.689 -793.601 371.203 -795.259 370.665C-794.532 369.872 -793.629 369.099 -792.553 368.353ZM-770.257 376.505L-757.556 367.397L-736.035 372.372L-748.268 381.417L-770.257 376.505ZM-745.184 382.106L-732.976 373.079L241.16 598.27C250.354 600.397 261.134 601.005 271.524 599.984C281.916 598.969 290.663 596.441 296.152 592.873L919.855 187.606C924.159 184.801 926.08 181.605 925.386 178.366C924.322 173.368 917.06 168.854 905.957 166.288L-120.834 -71.0743C-120.284 -71.1558 -119.729 -71.2329 -119.167 -71.3057L955.668 168.819C966.352 171.209 973.346 175.486 974.368 180.259L974.355 180.266C974.974 183.226 973.281 186.154 969.441 188.74L344.692 608.769C334.334 615.734 311.29 618.133 293.328 614.121L-745.184 382.106ZM-123.165 -72.1989C-123.66 -72.1201 -124.15 -72.0382 -124.635 -71.953L-128.145 -72.7643C-127.538 -72.8164 -126.93 -72.863 -126.321 -72.9039L-123.165 -72.1989ZM-131.975 -73.7977C-132.117 -73.7813 -132.258 -73.7646 -132.399 -73.7477L-133.99 -74.1156C-133.523 -74.1208 -133.055 -74.1227 -132.587 -74.1212C-132.108 -74.0478 -131.631 -73.9703 -131.157 -73.889C-131.43 -73.8596 -131.703 -73.8292 -131.975 -73.7977ZM-796.356 372.082C-797.35 373.642 -797.687 375.26 -797.338 376.882C-796.607 380.317 -792.894 383.488 -786.974 385.926C-786.285 385.218 -785.469 384.524 -784.529 383.851L-775.01 377.024L-791.68 373.299C-793.32 372.933 -794.882 372.525 -796.356 372.082ZM-771.938 377.71L-781.413 384.506C-782.521 385.301 -783.441 386.125 -784.168 386.97C-782.175 387.64 -779.99 388.236 -777.633 388.745L-762.578 391.999L-749.91 382.632L-771.938 377.71ZM-746.827 383.321L-759.471 392.671L343.658 631.154C352.684 633.105 363.118 633.572 373.059 632.481C383.001 631.39 391.241 628.856 396.281 625.359L1022.08 190.575C1025.83 187.963 1027.49 185.019 1026.86 182.046C1025.8 177.054 1018.44 172.612 1007.17 170.177L-112.732 -71.9235C-113.268 -71.8895 -113.803 -71.8513 -114.337 -71.8088L957.426 167.635C969.13 170.251 976.776 174.931 977.882 180.153C978.561 183.393 976.721 186.597 972.505 189.428L347.755 609.457C336.413 617.077 311.191 619.713 291.543 615.319L-746.827 383.321ZM-118.765 -72.798L-120.24 -73.1276C-119.858 -73.1301 -119.477 -73.1305 -119.096 -73.1288C-118.636 -73.0601 -118.178 -72.9878 -117.722 -72.9119C-118.07 -72.8756 -118.418 -72.8377 -118.765 -72.798ZM-786.072 393.084C-786.402 391.512 -786.109 389.942 -785.216 388.422C-783.397 388.987 -781.444 389.497 -779.37 389.946L-764.228 393.219L-773.43 400.024C-774.38 400.727 -775.199 401.451 -775.886 402.191C-781.702 399.716 -785.341 396.536 -786.072 393.084ZM-770.274 400.659L-761.121 393.891L341.966 632.347C351.806 634.473 363.203 634.989 374.055 633.792C384.91 632.601 393.912 629.84 399.414 626.02L1025.21 191.236C1029.31 188.386 1031.12 185.165 1030.42 181.926C1029.26 176.473 1021.22 171.629 1008.91 168.969L-106.372 -72.1309C-106.099 -72.1314 -105.826 -72.1309 -105.552 -72.1293C-103.906 -71.8864 -102.29 -71.5997 -100.715 -71.2697L1058.66 171.529C1070.53 174.015 1078.27 178.61 1079.37 183.826L1079.38 183.832C1080.02 186.804 1078.4 189.771 1074.72 192.41L447.872 641.956C437.459 649.427 413.297 652.218 394.02 648.186L-765.359 405.375C-768.175 404.786 -770.759 404.078 -773.077 403.272C-772.35 402.376 -771.414 401.501 -770.274 400.659ZM-774.079 404.755C-771.919 405.447 -769.567 406.064 -767.044 406.592L392.351 649.402C413.34 653.797 439.674 650.752 451.019 642.61L1077.86 193.064C1081.88 190.188 1083.61 186.952 1082.93 183.712C1081.71 178.036 1073.28 173.027 1060.36 170.324L-93.6432 -71.3567C-91.4721 -71.0817 -89.3453 -70.734 -87.2829 -70.3141L1110.15 172.894C1122.6 175.418 1130.73 180.178 1131.89 185.613L1131.9 185.612C1132.54 188.59 1130.98 191.578 1127.37 194.245L499.477 658.547C494.408 662.29 485.893 665.045 475.487 666.306C465.065 667.568 454.026 667.181 444.365 665.218L-753.082 422.017C-765.515 419.486 -773.643 414.732 -774.804 409.291C-775.133 407.765 -774.884 406.239 -774.079 404.755Z" fill="#2F5B90"/>
</svg>
