<svg width="32" height="32" viewBox="0 0 32 32" fill="none" xmlns="http://www.w3.org/2000/svg">
<path d="M11.9987 26.844C12.8746 26.8462 13.7423 26.6747 14.5516 26.3394C15.3608 26.0041 16.0956 25.5117 16.7133 24.8907L26.2253 15.38C27.4735 14.1283 28.1743 12.4327 28.174 10.6651C28.1738 8.8974 27.4725 7.20199 26.224 5.95067C24.964 4.69333 23.2893 4 21.5093 4C19.7293 4 18.0547 4.69333 16.7973 5.952L7.28532 15.464C6.03796 16.716 5.33759 18.4113 5.33759 20.1787C5.33759 21.946 6.03796 23.6413 7.28532 24.8933C7.90314 25.5137 8.63777 26.0055 9.44677 26.3404C10.2558 26.6752 11.1231 26.8464 11.9987 26.844ZM18.6827 7.83733C19.0531 7.46509 19.4936 7.16996 19.9788 6.96902C20.464 6.76809 20.9842 6.66532 21.5093 6.66667C22.5787 6.66667 23.584 7.084 24.3387 7.83733C25.0878 8.58801 25.5087 9.60517 25.5089 10.6657C25.5092 11.7263 25.0888 12.7436 24.34 13.4947L20.4827 17.3507L14.8267 11.6933L18.6827 7.83733ZM9.17066 17.3493L12.9413 13.5787L18.5973 19.236L14.828 23.0053C13.3173 24.516 10.6813 24.5147 9.17066 23.0067C8.42199 22.2556 8.0016 21.2384 8.0016 20.178C8.0016 19.1176 8.42199 18.1004 9.17066 17.3493Z" fill="#2FAE5E"/>
</svg>
